<svg width="1440" height="999" viewBox="0 0 1440 999" fill="none" xmlns="http://www.w3.org/2000/svg">
<path d="M3876.72 1011.72H-2317.09L-2294.09 1002.87H-2098.97L-2109.68 1007.29H-2106.97L-2096.27 1002.87H-1873.48L-1883.34 1007.29H-1880.63L-1870.78 1002.87H-1648L-1657 1007.29H-1654.29L-1645.3 1002.87H-1422.56L-1430.7 1007.29H-1427.99L-1419.85 1002.87H-1197.74L-1205.03 1007.29H-1204.36H-1201.65L-1194.37 1002.87H-972.254L-978.69 1007.29H-978.022H-975.308L-968.893 1002.87H-746.768L-752.34 1007.29H-749.636L-744.076 1002.87H-521.326L-526.044 1007.29H-523.34L-518.634 1002.87H-295.841L-299.705 1007.29H-297.001L-293.148 1002.87H-70.355L-73.3652 1007.29H-70.6506L-67.6624 1002.87H155.087L152.93 1007.29H155.645L157.779 1002.87H380.562L379.27 1007.29H381.984L383.265 1002.87H606.047L605.609 1007.29H608.323L608.75 1002.87H831.533L831.96 1007.29H834.663L834.236 1002.87H1056.97L1058.26 1007.29H1060.96L1059.68 1002.87H1282.46L1284.59 1007.29H1287.31L1285.16 1002.87H1507.95L1510.93 1007.29H1513.65L1510.64 1002.87H1733.43L1737.27 1007.29H1739.94L1736.08 1002.87H1958.87L1963.58 1007.29H1966.28L1961.57 1002.87H2184.35L2189.92 1007.29H2192.62L2187.05 1002.87H2409.83L2416.26 1007.29H2418.96L2412.54 1002.87H2635.28L2642.55 1007.29H2645.27L2637.98 1002.87H2860.76L2868.89 1007.29H2871.61L2863.46 1002.87H3086.25L3095.23 1007.29H3097.95L3088.95 1002.87H3311.73L3321.57 1007.29H3324.29L3314.42 1002.87H3537.17L3547.88 1007.29H3550.58L3539.88 1002.87H3762.66L3774.22 1007.29H3776.92L3765.35 1002.87H3852.82L3876.72 1011.72Z" fill="url(#paint0_linear_371_8159)"/>
<path d="M-1123.35 601.972H-1250.96L-1241.41 598.322H-1114.43L-1123.35 601.972ZM-975.898 601.972H-1121.59L-1112.68 598.322H-967.689L-975.898 601.972ZM-828.435 601.972H-974.125L-965.927 598.322H-820.938L-828.435 601.972ZM-681.005 601.972H-826.673L-819.186 598.322H-674.229L-681.016 601.972M-533.979 601.972H-679.243L-672.467 598.322H-527.916L-533.99 601.972M-386.516 601.972H-531.78L-525.716 598.322H-381.164L-386.516 601.972ZM-239.064 601.972H-384.327L-378.986 598.322H-234.434L-239.075 601.972M-91.6338 601.972H-237.302L-232.672 598.322H-87.7151L-91.6448 601.972M55.8293 601.972H-89.8606L-85.9421 598.322H59.0476L55.8293 601.972ZM203.281 601.972H57.5918L60.7988 598.322H205.788L203.281 601.972ZM350.723 601.972H205.055L207.551 598.322H352.507L350.723 601.972ZM498.175 601.972H352.485L354.27 598.322H499.259L498.186 601.972M645.638 601.972H499.948L501.01 598.322H646L645.638 601.972ZM793.091 601.972H647.401L647.751 598.322H792.74L793.091 601.972ZM940.532 601.972H794.864L794.503 598.322H939.459L940.521 601.972M1087.98 601.972H942.294L941.222 598.322H1086.21L1087.98 601.972ZM1235.45 601.972H1089.76L1087.97 598.322H1232.96L1235.46 601.972M1382.9 601.972H1237.21L1234.71 598.322H1379.7L1382.91 601.972M1530.34 601.972H1384.65L1381.43 598.322H1526.42L1530.34 601.972ZM1677.79 601.972H1532.1L1528.17 598.322H1673.16L1677.79 601.972ZM1825.26 601.972H1679.57L1674.93 598.322H1819.91L1825.26 601.972ZM1972.69 601.972H1827.02L1821.67 598.322H1966.62L1972.69 601.972ZM2120.15 601.972H1974.46L1968.4 598.322H2113.39L2120.16 601.972M2267.6 601.972H2121.91L2115.13 598.322H2260.12L2267.6 601.972ZM2415.07 601.972H2269.38L2261.88 598.322H2406.87L2415.07 601.972ZM2562.5 601.972H2416.83L2408.62 598.322H2553.58L2562.49 601.972M2709.95 601.972H2564.26L2555.34 598.322H2700.33L2709.96 601.972M2768.92 601.972H2711.72L2702.09 598.322H2759.02L2768.94 601.972" fill="url(#paint1_linear_371_8159)"/>
<path d="M-644.424 405.155H-738.887L-733.556 403.112H-639.443L-644.424 405.155ZM-535.271 405.155H-643.121L-638.141 403.112H-530.685L-535.271 405.155ZM-426.108 405.155H-533.958L-529.382 403.112H-421.926L-426.108 405.155ZM-316.977 405.155H-424.805L-420.624 403.112H-313.19L-316.977 405.155ZM-208.142 405.155H-315.674L-311.887 403.112H-204.749L-208.142 405.155ZM-98.9893 405.155H-206.522L-203.139 403.112H-96.0012L-98.9893 405.155ZM10.1741 405.155H-97.3584L-94.3701 403.112H12.7683L10.1741 405.155ZM119.305 405.155H11.4766L14.0708 403.112H121.505L119.305 405.155ZM228.468 405.155H120.618L122.808 403.112H230.263L228.468 405.155ZM337.621 405.155H229.771L231.566 403.112H339.022L337.621 405.155ZM446.762 405.155H338.934L340.324 403.112H447.759L446.762 405.155ZM555.915 405.155H448.065L449.061 403.112H556.517L555.915 405.155ZM665.068 405.155H557.218L557.809 403.112H665.264L665.068 405.155ZM774.231 405.155H666.381L666.578 403.112H774.034L774.231 405.155ZM883.362 405.155H775.533L775.336 403.112H882.771L883.362 405.155ZM992.525 405.155H884.675L884.073 403.112H991.529L992.525 405.155ZM1101.68 405.155H993.828L992.832 403.112H1100.29L1101.68 405.155ZM1210.83 405.155H1102.98L1101.58 403.112H1209.04L1210.83 405.155ZM1319.97 405.155H1212.12L1210.33 403.112H1317.78L1319.97 405.155ZM1429.12 405.155H1321.27L1319.09 403.112H1426.54L1429.12 405.155ZM1538.28 405.155H1430.43L1427.83 403.112H1535.29L1538.28 405.155ZM1647.42 405.155H1539.59L1536.6 403.112H1644.04L1647.42 405.155ZM1756.57 405.155H1648.72L1645.33 403.112H1752.78L1756.57 405.155ZM1865.73 405.155H1757.88L1754.1 403.112H1861.55L1865.73 405.155ZM1974.89 405.155H1867.04L1862.84 403.112H1970.3L1974.88 405.155M2084.03 405.155H1976.2L1971.61 403.112H2079.05L2084.03 405.155ZM2193.18 405.155H2085.33L2080.35 403.112H2187.81L2193.18 405.155ZM2236.83 405.155H2194.49L2189.11 403.112H2231.29L2236.83 405.155Z" fill="url(#paint2_linear_371_8159)"/>
<path d="M-362.939 289.483H-437.918L-434.624 288.21H-359.863L-362.95 289.483M-276.302 289.483H-361.91L-358.823 288.21H-273.456L-276.291 289.483M-189.654 289.483H-275.262L-272.427 288.21H-187.06L-189.654 289.483ZM-103.028 289.483H-188.614L-186.02 288.21H-100.675L-103.017 289.483M-16.6323 289.483H-101.989L-99.6462 288.21H-14.5417L-16.6433 289.483M70.0151 289.483H-15.3408L-13.239 288.21H71.8652L70.0151 289.483ZM156.652 289.483H71.2961L73.146 288.21H158.25L156.641 289.483M243.289 289.483H157.703L159.301 288.21H244.646L243.289 289.483ZM329.926 289.483H244.318L245.675 288.21H331.042L329.926 289.483ZM416.573 289.483H330.966L332.071 288.21H417.438L416.573 289.483ZM503.199 289.483H417.614L418.478 288.21H503.823L503.199 289.483ZM589.847 289.483H504.24L504.852 288.21H590.219L589.847 289.483ZM676.495 289.483H590.887L591.259 288.21H676.626L676.506 289.483M763.132 289.483H677.524L677.644 288.21H763.011L763.132 289.483ZM849.768 289.483H764.182L764.062 288.21H849.408L849.78 289.483M936.406 289.483H850.798L850.425 288.21H935.793L936.406 289.483ZM1023.05 289.483H937.445L936.832 288.21H1022.2L1023.06 289.483M1109.7 289.483H1024.09L1023.23 288.21H1108.6L1109.7 289.483ZM1196.33 289.483H1110.72L1109.6 288.21H1194.97L1196.33 289.483ZM1282.97 289.483H1197.37L1196.01 288.21H1281.38L1282.97 289.483ZM1369.62 289.483H1284.01L1282.41 288.21H1367.77L1369.62 289.483ZM1456.25 289.483H1370.66L1368.81 288.21H1454.16L1456.26 289.483M1542.9 289.483H1457.29L1455.19 288.21H1540.55L1542.9 289.483ZM1629.53 289.483H1543.93L1541.58 288.21H1626.95L1629.54 289.483M1716.18 289.483H1630.57L1627.98 288.21H1713.35L1716.18 289.483ZM1802.81 289.483H1717.21L1714.37 288.21H1799.72L1802.81 289.483ZM1889.45 289.483H1803.85L1800.76 288.21H1886.13L1889.45 289.483ZM1924.1 289.483H1890.48L1887.15 288.21H1920.66L1924.09 289.483" fill="url(#paint3_linear_371_8159)"/>
<path d="M-177.745 213.362H-239.907L-237.597 212.457H-175.589L-177.745 213.362ZM-105.918 213.362H-176.891L-174.735 212.457H-103.937L-105.929 213.362M-34.0801 213.362H-105.053L-103.072 212.457H-32.2742L-34.0911 213.362M37.7358 213.362H-33.2263L-31.4094 212.457H39.3777L37.7358 213.362ZM109.366 213.362H38.6006L40.2424 212.457H110.833L109.366 213.362ZM181.193 213.362H110.428L111.894 212.457H182.484L181.182 213.362M253.031 213.362H182.265L183.557 212.457H254.147L253.02 213.362M324.847 213.362H253.885L255.012 212.457H325.799L324.847 213.362ZM396.685 213.362H325.712L326.664 212.457H397.462L396.685 213.362ZM468.523 213.362H397.55L398.327 212.457H469.125L468.523 213.362ZM540.339 213.362H469.376L469.979 212.457H540.766L540.328 213.362M612.177 213.362H541.204L541.631 212.457H612.428L612.166 213.362M684.004 213.362H613.031L613.293 212.457H684.091L684.004 213.362ZM755.842 213.362H684.869L684.956 212.457H755.754L755.842 213.362ZM827.658 213.362H756.696L756.608 212.457H827.395L827.658 213.362ZM899.496 213.362H828.523L828.26 212.457H899.058L899.485 213.362M971.334 213.362H900.361L899.923 212.457H970.721L971.323 213.362M1043.16 213.362H972.188L971.585 212.457H1042.38L1043.16 213.362ZM1114.99 213.362H1044.01L1043.24 212.457H1114.04L1114.99 213.362ZM1186.81 213.362H1115.84L1114.89 212.457H1185.69L1186.81 213.362ZM1258.65 213.362H1187.68L1186.55 212.457H1257.35L1258.64 213.362M1330.47 213.362H1259.51L1258.22 212.457H1329L1330.47 213.362ZM1402.31 213.362H1331.33L1329.87 212.457H1400.66L1402.31 213.362ZM1474.15 213.362H1403.17L1401.53 212.457H1472.33L1474.15 213.362ZM1545.97 213.362H1475L1473.18 212.457H1543.98L1545.96 213.362M1617.8 213.362H1546.84L1544.84 212.457H1615.63L1617.79 213.362M1689.63 213.362H1618.65L1616.5 212.457H1687.29L1689.63 213.362ZM1718.36 213.362H1690.49L1688.16 212.457H1715.96L1718.36 213.362Z" fill="url(#paint4_linear_371_8159)"/>
<path d="M-46.6023 159.476H-99.6899L-98.0371 158.84H-45.0591L-46.6023 159.476ZM14.7493 159.476H-45.8582L-44.3147 158.84H16.1724L14.7493 159.476ZM76.0901 159.476H15.4829L16.9058 158.84H77.3926L76.0901 159.476ZM137.42 159.476H76.8237L78.1262 158.84H138.602L137.42 159.476ZM198.586 159.476H138.153L139.325 158.84H199.637L198.586 159.476ZM259.938 159.476H199.505L200.556 158.84H260.868L259.938 159.476ZM321.278 159.476H260.846L261.777 158.84H322.088L321.278 159.476ZM382.608 159.476H322.012L322.811 158.84H383.287L382.608 159.476ZM443.96 159.476H383.353L384.031 158.84H444.518L443.96 159.476ZM505.301 159.476H444.693L445.252 158.84H505.739L505.301 159.476ZM566.642 159.476H506.045L506.483 158.84H566.959L566.653 159.476M627.982 159.476H567.375L567.682 158.84H628.169L627.982 159.476ZM689.323 159.476H628.716L628.902 158.84H689.389L689.323 159.476ZM750.675 159.476H690.068L690.133 158.84H750.62L750.686 159.476M812.005 159.476H751.408L751.343 158.84H811.819L812.005 159.476ZM873.357 159.476H812.75L812.563 158.84H873.05L873.357 159.476ZM934.698 159.476H874.09L873.784 158.84H934.271L934.708 159.476M996.039 159.476H935.431L934.993 158.84H995.48L996.039 159.476ZM1057.38 159.476H996.772L996.214 158.84H1056.7L1057.38 159.476ZM1118.72 159.476H1058.11L1057.43 158.84H1117.92L1118.72 159.476ZM1180.07 159.476H1119.46L1118.65 158.84H1179.14L1180.07 159.476ZM1241.4 159.476H1180.81L1179.88 158.84H1240.35L1241.4 159.476ZM1302.74 159.476H1242.14L1241.08 158.84H1301.57L1302.74 159.476ZM1364.09 159.476H1303.49L1302.31 158.84H1362.79L1364.09 159.476ZM1425.44 159.476H1364.83L1363.53 158.84H1424.01L1425.44 159.476ZM1486.77 159.476H1426.17L1424.75 158.84H1485.22L1486.77 159.476ZM1548.12 159.476H1487.51L1485.97 158.84H1546.45L1548.13 159.476M1572.65 159.476H1548.85L1547.18 158.84H1570.93L1572.65 159.476Z" fill="url(#paint5_linear_371_8159)"/>
<path d="M51.1118 119.322H4.78857L6.06909 118.82H52.3047L51.1008 119.322M104.637 119.322H51.7463L52.9504 118.82H105.743L104.637 119.322ZM158.173 119.322H105.283L106.388 118.82H159.181L158.173 119.322ZM211.688 119.322H158.808L159.815 118.82H212.596L211.688 119.322ZM265.06 119.322H212.323L213.231 118.82H265.87L265.049 119.322M318.597 119.322H265.859L266.68 118.82H319.319L318.597 119.322ZM372.122 119.322H319.385L320.107 118.82H372.746L372.122 119.322ZM425.648 119.322H372.768L373.392 118.82H426.173L425.648 119.322ZM479.184 119.322H426.293L426.819 118.82H479.611L479.173 119.322M532.709 119.322H479.819L480.246 118.82H533.038L532.698 119.322M586.235 119.322H533.355L533.695 118.82H586.476L586.235 119.322ZM639.76 119.322H586.87L587.111 118.82H639.903L639.76 119.322ZM693.297 119.322H640.406L640.549 118.82H693.341L693.297 119.322ZM746.822 119.322H693.931L693.975 118.82H746.767L746.811 119.322M800.348 119.322H747.468L747.424 118.82H800.205L800.348 119.322ZM853.873 119.322H800.982L800.84 118.82H853.632L853.873 119.322ZM907.409 119.322H854.519L854.278 118.82H907.07L907.409 119.322ZM960.935 119.322H908.044L907.705 118.82H960.497L960.924 119.322M1014.46 119.322H961.57L961.132 118.82H1013.92L1014.45 119.322M1067.99 119.322H1015.1L1014.57 118.82H1067.36L1067.99 119.322ZM1121.52 119.322H1068.63L1068.01 118.82H1120.8L1121.52 119.322ZM1175.04 119.322H1122.16L1121.44 118.82H1174.22L1175.04 119.322ZM1228.57 119.322H1175.68L1174.86 118.82H1227.65L1228.56 119.322M1282.1 119.322H1229.21L1228.3 118.82H1281.09L1282.1 119.322ZM1335.64 119.322H1282.74L1281.74 118.82H1334.53L1335.64 119.322ZM1389.15 119.322H1336.27L1335.16 118.82H1387.95L1389.15 119.322ZM1442.69 119.322H1389.8L1388.59 118.82H1441.38L1442.68 119.322M1464.1 119.322H1443.33L1442.04 118.82H1462.77L1464.11 119.322" fill="url(#paint6_linear_371_8159)"/>
<path d="M126.759 88.2442H85.668L86.6753 87.8427H127.7L126.759 88.2442ZM174.242 88.2442H127.328L128.27 87.8427H175.107L174.242 88.2442ZM221.715 88.2442H174.801L175.665 87.8427H222.503L221.704 88.2442M269.187 88.2442H222.284L223.072 87.8427H269.898L269.176 88.2442M316.528 88.2442H269.756L270.479 87.8427H317.174L316.528 88.2442ZM364.011 88.2442H317.24L317.885 87.8427H364.581L364.011 88.2442ZM411.495 88.2442H364.723L365.292 87.8427H411.987L411.495 88.2442ZM458.967 88.2442H412.064L412.557 87.8427H459.383L458.967 88.2442ZM506.451 88.2442H459.536L459.952 87.8427H506.79L506.451 88.2442ZM553.923 88.2442H507.009L507.348 87.8427H554.186L553.923 88.2442ZM601.395 88.2442H554.492L554.755 87.8427H601.581L601.395 88.2442ZM648.879 88.2442H601.965L602.151 87.8427H648.988L648.879 88.2442ZM696.362 88.2442H649.448L649.557 87.8427H696.395L696.362 88.2442ZM743.845 88.2442H696.931L696.964 87.8427H743.802L743.834 88.2442M791.317 88.2442H744.415L744.382 87.8427H791.208L791.317 88.2442ZM838.801 88.2442H791.887L791.777 87.8427H838.615L838.801 88.2442ZM886.273 88.2442H839.359L839.173 87.8427H886.011L886.273 88.2442ZM933.757 88.2442H886.843L886.58 87.8427H933.417L933.757 88.2442ZM981.229 88.2442H934.315L933.976 87.8427H980.813L981.229 88.2442ZM1028.71 88.2442H981.798L981.382 87.8427H1028.22L1028.71 88.2442ZM1076.2 88.2442H1029.28L1028.79 87.8427H1075.63L1076.2 88.2442ZM1123.67 88.2442H1076.77L1076.2 87.8427H1123.02L1123.67 88.2442ZM1171.15 88.2442H1124.24L1123.59 87.8427H1170.43L1171.15 88.2442ZM1218.62 88.2442H1171.71L1170.99 87.8427H1217.82L1218.61 88.2442M1266.11 88.2442H1219.19L1218.39 87.8427H1265.23L1266.1 88.2442M1313.58 88.2442H1266.68L1265.81 87.8427H1312.64L1313.58 88.2442ZM1361.06 88.2442H1314.15L1313.21 87.8427H1360.04L1361.06 88.2442ZM1380.05 88.2442H1361.63L1360.61 87.8427H1379L1380.05 88.2442Z" fill="url(#paint7_linear_371_8159)"/>
<path d="M187.027 63.4622H150.107L150.928 63.161H187.793L187.027 63.4622ZM229.683 63.4622H187.531L188.297 63.161H230.384L229.683 63.4622ZM272.35 63.4622H230.198L230.898 63.161H272.985L272.34 63.4622M314.996 63.4622H272.854L273.489 63.161H315.576L314.996 63.4622ZM357.531 63.4622H315.51L316.09 63.161H358.057L357.542 63.4622M400.199 63.4622H358.177L358.692 63.161H400.658L400.199 63.4622ZM442.855 63.4622H400.833L401.293 63.161H443.26L442.866 63.4622M485.511 63.4622H443.369L443.763 63.161H485.85L485.511 63.4622ZM528.167 63.4622H486.014L486.354 63.161H528.441L528.167 63.4622ZM570.834 63.4622H528.682L528.955 63.161H571.042L570.823 63.4622M613.49 63.4622H571.349L571.557 63.161H613.644L613.49 63.4622ZM656.147 63.4622H613.994L614.147 63.161H656.234L656.147 63.4622ZM698.803 63.4622H656.65L656.738 63.161H698.825L698.792 63.4622M741.47 63.4622H699.317L699.35 63.161H741.437L741.47 63.4622ZM784.126 63.4622H741.984L741.952 63.161H784.039L784.126 63.4622ZM826.782 63.4622H784.63L784.542 63.161H826.629L826.782 63.4622ZM869.438 63.4622H827.286L827.133 63.161H869.219L869.428 63.4622M912.106 63.4622H869.953L869.734 63.161H911.821L912.095 63.4622M954.762 63.4622H912.609L912.335 63.161H954.423L954.762 63.4622ZM997.418 63.4622H955.266L954.926 63.161H997.013L997.407 63.4622M1040.08 63.4622H997.933L997.538 63.161H1039.63L1040.08 63.4622ZM1082.73 63.4622H1040.59L1040.13 63.161H1082.22L1082.73 63.4622ZM1125.4 63.4622H1083.25L1082.73 63.161H1124.82L1125.4 63.4622ZM1168.05 63.4622H1125.9L1125.32 63.161H1167.41L1168.04 63.4622M1210.72 63.4622H1168.57L1167.92 63.161H1210.01L1210.71 63.4622M1253.37 63.4622H1211.22L1210.52 63.161H1252.61L1253.38 63.4622M1296.03 63.4622H1253.88L1253.11 63.161H1295.2L1296.02 63.4622M1313.09 63.4622H1296.54L1295.72 63.161H1312.24L1313.09 63.4622Z" fill="url(#paint8_linear_371_8159)"/>
<path d="M236.196 43.268H202.68L203.347 43.0004H236.82L236.196 43.268ZM274.923 43.268H236.656L237.28 43.0004H275.492L274.912 43.268M313.66 43.268H275.394L275.974 43.0004H314.186L313.66 43.268ZM352.376 43.268H314.12L314.645 43.0004H352.858L352.376 43.268ZM390.993 43.268H352.847L353.328 43.0004H391.431L391.004 43.268M429.72 43.268H391.573L392 43.0004H430.103L429.731 43.268M468.446 43.268H430.3L430.672 43.0004H468.775L468.446 43.268ZM507.173 43.268H468.917L469.246 43.0004H507.458L507.184 43.268M545.899 43.268H507.633L507.906 43.0004H546.119L545.888 43.268M584.626 43.268H546.359L546.589 43.0004H584.801L584.626 43.268ZM623.342 43.268H585.086L585.261 43.0004H623.473L623.342 43.268ZM662.079 43.268H623.812L623.933 43.0004H662.145L662.068 43.268M700.806 43.268H662.539L662.616 43.0004H700.828L700.806 43.268ZM739.533 43.268H701.266L701.288 43.0004H739.5L739.522 43.268M778.248 43.268H739.992L739.97 43.0004H778.182L778.259 43.268M816.986 43.268H778.719L778.642 43.0004H816.854L816.975 43.268M855.712 43.268H817.446L817.314 43.0004H855.526L855.702 43.268M894.439 43.268H856.172L855.997 43.0004H894.209L894.439 43.268ZM933.155 43.268H894.888L894.658 43.0004H932.87L933.144 43.268M971.892 43.268H933.625L933.352 43.0004H971.564L971.892 43.268ZM1010.62 43.268H972.352L972.024 43.0004H1010.24L1010.61 43.268M1049.33 43.268H1011.08L1010.71 43.0004H1048.92L1049.35 43.268M1088.06 43.268H1049.79L1049.37 43.0004H1087.58L1088.06 43.268ZM1126.8 43.268H1088.53L1088.05 43.0004H1126.26L1126.79 43.268M1165.53 43.268H1127.26L1126.73 43.0004H1164.95L1165.53 43.268ZM1204.24 43.268H1165.98L1165.4 43.0004H1203.62L1204.24 43.268ZM1242.97 43.268H1204.7L1204.08 43.0004H1242.29L1242.97 43.268ZM1258.46 43.268H1243.43L1242.75 43.0004H1257.76L1258.46 43.268Z" fill="url(#paint9_linear_371_8159)"/>
<path d="M277.068 26.4568H246.387L246.945 26.2556H277.594L277.079 26.4568M312.533 26.4568H277.495L278.009 26.2556H313.003L312.522 26.4568M347.987 26.4568H312.949L313.419 26.2556H348.413L347.976 26.4568M383.44 26.4568H348.413L348.851 26.2556H383.834L383.44 26.4568ZM418.796 26.4568H383.867L384.261 26.2556H419.146L418.796 26.4568ZM454.26 26.4568H419.332L419.682 26.2556H454.567L454.26 26.4568ZM489.714 26.4568H454.786L455.092 26.2556H489.977L489.703 26.4568M525.168 26.4568H490.141L490.415 26.2556H525.398L525.168 26.4568ZM560.633 26.4568H525.595L525.825 26.2556H560.819L560.633 26.4568ZM596.086 26.4568H561.049L561.235 26.2556H596.229L596.086 26.4568ZM631.54 26.4568H596.513L596.656 26.2556H631.639L631.54 26.4568ZM667.005 26.4568H631.967L632.066 26.2556H667.06L666.994 26.4568M702.459 26.4568H667.421L667.487 26.2556H702.48L702.459 26.4568ZM737.924 26.4568H702.886L702.908 26.2556H737.902L737.924 26.4568ZM773.377 26.4568H738.35L738.328 26.2556H773.312L773.377 26.4568ZM808.831 26.4568H773.793L773.728 26.2556H808.721L808.82 26.4568M844.295 26.4568H809.258L809.16 26.2556H844.153L844.295 26.4568ZM879.75 26.4568H844.712L844.569 26.2556H879.563L879.75 26.4568ZM915.203 26.4568H880.165L879.979 26.2556H914.974L915.203 26.4568ZM950.668 26.4568H915.63L915.401 26.2556H950.394L950.668 26.4568ZM986.122 26.4568H951.084L950.81 26.2556H985.804L986.111 26.4568M1021.58 26.4568H986.549L986.242 26.2556H1021.23L1021.58 26.4568ZM1057.04 26.4568H1022L1021.65 26.2556H1056.65L1057.04 26.4568ZM1092.49 26.4568H1057.46L1057.06 26.2556H1092.06L1092.49 26.4568ZM1127.96 26.4568H1092.92L1092.48 26.2556H1127.48L1127.95 26.4568M1163.41 26.4568H1128.39L1127.9 26.2556H1162.89L1163.4 26.4568M1198.87 26.4568H1163.83L1163.31 26.2556H1198.31L1198.87 26.4568ZM1213.05 26.4568H1199.29L1198.73 26.2556H1212.47L1213.05 26.4568Z" fill="url(#paint10_linear_371_8159)"/>
<path d="M311.569 12.2907H283.274L283.756 12.0896H312.018L311.569 12.2907ZM344.276 12.2907H311.963L312.412 12.0896H344.681L344.265 12.2907M376.971 12.2907H344.659L345.075 12.0896H377.343L376.971 12.2907ZM409.667 12.2907H377.365L377.737 12.0896H410.006L409.667 12.2907ZM442.274 12.2907H410.061L410.4 12.0896H442.581L442.274 12.2907ZM474.97 12.2907H442.756L443.062 12.0896H475.244L474.97 12.2907ZM507.676 12.2907H475.462L475.736 12.0896H507.917L507.687 12.2907M540.361 12.2907H508.059L508.289 12.0896H540.558L540.361 12.2907ZM573.067 12.2907H540.755L540.952 12.0896H573.22L573.056 12.2907M605.762 12.2907H573.45L573.614 12.0896H605.883L605.762 12.2907ZM638.458 12.2907H606.156L606.277 12.0896H638.545L638.458 12.2907ZM671.164 12.2907H638.852L638.939 12.0896H671.208L671.153 12.2907M703.86 12.2907H671.547L671.602 12.0896H703.871L703.849 12.2907M736.566 12.2907H704.254L704.276 12.0896H736.544L736.566 12.2907ZM769.261 12.2907H736.96L736.938 12.0896H769.207L769.261 12.2907ZM801.957 12.2907H769.645L769.589 12.0896H801.858L801.946 12.2907M834.652 12.2907H802.34L802.252 12.0896H834.521L834.641 12.2907M867.359 12.2907H835.046L834.926 12.0896H867.195L867.359 12.2907ZM900.054 12.2907H867.742L867.577 12.0896H899.846L900.043 12.2907M932.749 12.2907H900.437L900.24 12.0896H932.509L932.739 12.2907M965.456 12.2907H933.144L932.914 12.0896H965.182L965.456 12.2907ZM998.151 12.2907H965.85L965.576 12.0896H997.845L998.151 12.2907ZM1030.85 12.2907H998.534L998.228 12.0896H1030.5L1030.84 12.2907M1063.54 12.2907H1031.23L1030.89 12.0896H1063.16L1063.53 12.2907M1096.25 12.2907H1063.94L1063.56 12.0896H1095.83L1096.25 12.2907ZM1128.94 12.2907H1096.64L1096.23 12.0896H1128.49L1128.94 12.2907ZM1161.64 12.2907H1129.33L1128.88 12.0896H1161.15L1161.63 12.2907M1174.72 12.2907H1162.03L1161.55 12.0896H1174.23L1174.73 12.2907" fill="url(#paint11_linear_371_8159)"/>
<path d="M1141.92 0.13454H1130.15L1129.94 0.0672188H1129.58L1129.79 0.13454H1099.81L1099.62 0.0672188H1099.26L1099.44 0.13454H1069.47L1069.3 0.0672188H1068.94L1069.11 0.13454H1039.13L1038.98 0.0672188H1038.62L1038.77 0.13454H1008.79L1008.66 0.0672188H1008.29L1008.43 0.13454H978.459L978.328 0.0672188H977.967L978.098 0.13454H948.128L948.008 0.0672188H947.647L947.756 0.13454H917.786L917.688 0.0672188H917.327L917.425 0.13454H887.445L887.367 0.0672188H886.996L887.083 0.13454H857.102L857.036 0.0672188H856.686L856.752 0.13454H826.771L826.717 0.0672188H826.355L826.41 0.13454H796.429L796.396 0.0672188H796.035L796.068 0.13454H766.098L766.076 0.0672188H765.715L765.737 0.13454H735.767L735.756 0.0672188H735.395V0.13454H705.425V0.0672188H705.064V0.13454H675.083L675.105 0.0672188H674.744L674.722 0.13454H644.741L644.785 0.0672188H644.423L644.38 0.13454H614.41L614.464 0.0672188H614.103L614.048 0.13454H584.068L584.144 0.0672188H583.772L583.706 0.13454H553.737L553.813 0.0672188H553.452L553.375 0.13454H523.406L523.493 0.0672188H523.132L523.033 0.13454H493.151L493.26 0.0672188H493.173H492.812L492.702 0.13454H462.809L462.94 0.0672188H462.853H462.48L462.36 0.13454H432.478L432.609 0.0672188H432.248L432.106 0.13454H402.136L402.3 0.0672188H401.928L401.775 0.13454H371.805L371.969 0.0672188H371.608L371.433 0.13454H341.463L341.649 0.0672188H341.288L341.102 0.13454H314.842L315.247 0H1141.5L1141.92 0.13454Z" fill="url(#paint12_linear_371_8159)"/>
<path d="M-1204.36 1007.29H-1205.03L-1197.74 1002.87L-533.979 601.972L-527.916 598.288L-208.142 405.155L-204.749 403.112L-16.6323 289.483L-14.5308 288.21L109.366 213.361L110.833 212.49L198.586 159.476L199.648 158.84L265.06 119.322L265.882 118.82L316.528 88.2442L317.174 87.8427L357.531 63.4622L358.057 63.161L390.993 43.268L391.42 43.0003L418.796 26.4568L419.146 26.2556L442.274 12.2907L442.581 12.0896L462.36 0.13454L462.48 0.0672188H462.853L462.579 0.0668143L-1204.36 1007.29Z" fill="url(#paint13_linear_371_8159)"/>
<path d="M-978.022 1007.29H-978.69L-972.254 1002.87L-386.516 601.972L-381.164 598.288L-98.9893 405.155L-95.9902 403.112L70.0151 289.483L71.8652 288.21L181.193 213.361L182.495 212.49L259.938 159.476L260.868 158.84L318.597 119.322L319.319 118.82L364.011 88.2442L364.581 87.8427L400.199 63.4622L400.658 63.161L429.72 43.268L430.092 43.0003L454.26 26.4568L454.567 26.2556L474.97 12.2907L475.244 12.0896L492.702 0.13454L492.812 0.0672188H493.173L492.899 0.0668143L-978.022 1007.29Z" fill="url(#paint14_linear_371_8159)"/>
<path d="M-749.636 1007.29H-752.34L-746.768 1002.87L-239.064 601.972L-234.423 598.288L10.1741 405.155L12.7683 403.112L156.652 289.483L253.031 213.361L254.158 212.49L321.278 159.476L322.088 158.84L372.122 119.322L411.495 88.2442L411.987 87.8427L442.855 63.4622L443.26 63.161L468.446 43.268L468.775 43.0004L489.714 26.4568L489.988 26.2556L507.676 12.2907L507.906 12.0895L523.033 0.13454L523.132 0.0672188H523.493L523.406 0.13454L508.3 12.0895L508.059 12.2907L490.415 26.2556L490.141 26.4568L469.234 43.0003L468.906 43.2681L443.763 63.161L443.369 63.4622L412.557 87.8427L412.064 88.2442L373.392 118.82L372.768 119.322L322.822 158.84L322.012 159.476L255.012 212.49L253.885 213.361L159.301 288.21L14.0708 403.112L11.4766 405.155L-232.661 598.288L-237.302 601.972L-744.076 1002.87L-749.636 1007.29Z" fill="url(#paint15_linear_371_8159)"/>
<path d="M-523.34 1007.29H-526.044L-521.326 1002.87L-91.6338 601.972L-87.7041 598.288L119.305 405.155L121.505 403.112L243.289 289.483L244.646 288.21L324.847 213.361L325.799 212.49L382.608 159.476L383.298 158.84L425.648 119.322L426.173 118.82L458.967 88.2442L459.383 87.8427L485.511 63.4622L485.85 63.161L507.173 43.268L507.446 43.0003L525.168 26.4568L525.398 26.2556L540.361 12.2907L540.558 12.0896L553.375 0.13454L553.452 0.0672188H553.813L553.737 0.13454L540.952 12.0896L540.755 12.2907L525.825 26.2556L525.595 26.4568L507.906 43.0004L507.633 43.268L486.354 63.161L486.025 63.4624L459.952 87.8427L459.536 88.2442L426.819 118.82L426.293 119.322L384.031 158.84L383.353 159.476L326.664 212.49L325.711 213.361L245.675 288.21L244.318 289.483L122.808 403.112L120.618 405.155L-85.9421 598.288L-89.8606 601.972L-518.634 1002.87L-523.34 1007.29Z" fill="url(#paint16_linear_371_8159)"/>
<path d="M-297.001 1007.29H-299.705L-295.841 1002.87L55.8293 601.972L59.0476 598.288L228.468 405.155L230.263 403.112L329.926 289.483L331.042 288.21L396.685 213.361L397.462 212.49L443.96 159.476L444.518 158.84L479.184 119.322L479.611 118.82L506.451 88.2442L506.79 87.8427L528.167 63.4622L528.452 63.1609L545.899 43.268L546.119 43.0004L560.633 26.4568L560.819 26.2556L573.067 12.2907L573.231 12.0895L583.706 0.13454L583.772 0.0672188H584.144L584.068 0.13454L573.614 12.0896L573.461 12.2904L561.245 26.2556L561.06 26.4565L546.589 43.0004L546.359 43.268L528.955 63.161L528.682 63.4622L507.359 87.8427L507.019 88.2445L480.257 118.82L479.819 119.322L445.252 158.84L444.693 159.476L398.316 212.49L397.539 213.361L332.071 288.21L330.966 289.483L231.566 403.112L229.771 405.155L60.7988 598.288L57.5918 601.972L-293.148 1002.87L-297.001 1007.29Z" fill="url(#paint17_linear_371_8159)"/>
<path d="M-70.6506 1007.29H-73.3652L-70.355 1002.87L203.281 601.972L205.788 598.288L337.621 405.155L339.022 403.112L416.573 289.483L417.438 288.21L468.523 213.361L469.125 212.49L505.301 159.476L505.739 158.84L532.709 119.322L533.049 118.82L553.923 88.2442L554.196 87.8427L570.834 63.4622L571.042 63.161L584.626 43.268L584.801 43.0004L596.086 26.4568L596.239 26.2556L605.762 12.2907L605.894 12.0895L614.048 0.13454L614.103 0.0672188H614.464L614.41 0.13454L606.288 12.0895L606.156 12.2907L596.656 26.2556L596.513 26.4568L585.261 43.0004L585.086 43.268L571.557 63.161L571.349 63.4622L554.492 88.2442L533.684 118.82L533.355 119.322L506.472 158.84L506.034 159.476L469.979 212.49L469.376 213.361L418.478 288.21L417.614 289.483L340.324 403.112L338.923 405.155L207.551 598.288L205.055 601.972L-67.6624 1002.87L-70.6506 1007.29Z" fill="url(#paint18_linear_371_8159)"/>
<path d="M155.645 1007.29H152.93L155.087 1002.87L350.723 601.972L352.507 598.288L446.762 405.155L447.759 403.112L503.199 289.483L503.823 288.21L540.339 213.361L540.777 212.49L566.642 159.476L566.948 158.84L586.235 119.322L586.476 118.82L601.395 88.2442L601.592 87.8427L613.49 63.4622L613.644 63.161L623.342 43.268L623.473 43.0004L631.54 26.4568L631.65 26.2556L638.458 12.2907L638.545 12.0896L644.38 0.13454L644.423 0.0672188H644.785L644.741 0.13454L638.939 12.0896L638.852 12.2907L632.066 26.2556L631.967 26.4568L623.933 43.0004L623.812 43.268L614.147 63.161L613.994 63.4622L602.161 87.8427L601.965 88.2442L587.111 118.82L586.87 119.322L567.682 158.84L567.375 159.476L541.631 212.49L541.204 213.361L504.852 288.21L504.24 289.483L449.061 403.112L448.065 405.155L354.27 598.288L352.485 601.972L157.779 1002.87L155.645 1007.29Z" fill="url(#paint19_linear_371_8159)"/>
<path d="M381.984 1007.29H379.27L380.562 1002.87L498.175 601.972L555.915 405.155L556.517 403.112L589.847 289.483L590.219 288.21L612.177 213.361L612.429 212.49L627.982 159.476L628.169 158.84L639.76 119.322L639.903 118.82L648.879 88.2442L648.999 87.8427L656.147 63.4622L656.234 63.161L662.079 43.268L662.156 43.0003L667.005 26.4568L667.06 26.2556L671.164 12.2907L671.219 12.0895L674.722 0.13454L674.744 0.0672188H675.105L675.083 0.13454L671.602 12.0896L671.547 12.2907L667.487 26.2556L667.432 26.4565L662.616 43.0004L662.539 43.268L656.749 63.1609L656.661 63.4624L649.568 87.8427L649.448 88.2442L640.549 118.82L640.406 119.322L628.902 158.84L628.716 159.476L613.293 212.49L613.031 213.361L591.249 288.21L590.887 289.483L557.82 403.112L557.218 405.155L501.01 598.288L499.948 601.972L383.265 1002.87L381.984 1007.29Z" fill="url(#paint20_linear_371_8159)"/>
<path d="M608.323 1007.29H605.609L606.047 1002.87L645.638 601.972L665.068 405.155L665.275 403.112L676.495 289.483L676.615 288.21L684.004 213.361L684.092 212.49L689.323 159.476L689.389 158.84L693.297 119.322L693.341 118.82L696.362 88.2442L696.406 87.8427L698.803 63.4622L698.836 63.1609L700.806 43.268L700.828 43.0004L702.459 26.4568L702.48 26.2556L703.86 12.2907L703.882 12.0895L705.064 0.13454V0.0672188H705.425V0.13454L704.276 12.0896L704.254 12.2907L702.908 26.2556L702.886 26.4568L701.288 43.0004L701.266 43.268L699.35 63.161L699.317 63.4622L696.964 87.8427L696.931 88.2442L693.987 118.82L693.931 119.322L690.123 158.84L690.068 159.476L684.956 212.49L684.869 213.361L677.655 288.21L677.524 289.483L666.578 403.112L666.381 405.155L647.751 598.288L647.401 601.972L608.75 1002.87L608.323 1007.29Z" fill="url(#paint21_linear_371_8159)"/>
<path d="M834.663 1007.29H831.96L831.533 1002.87L793.091 601.972L774.231 405.155L774.034 403.112L763.132 289.483L763.011 288.21L755.842 213.361L755.755 212.49L750.675 159.476L750.61 158.84L746.822 119.322L746.779 118.82L743.845 88.2442L743.802 87.8427L741.47 63.4622L741.437 63.161L739.533 43.268L739.511 43.0003L737.924 26.4568L737.902 26.2556L736.566 12.2907L736.544 12.0896L735.395 0.13454V0.0672188H735.756L735.767 0.13454L736.938 12.0896L736.949 12.2904L738.328 26.2556L738.35 26.4568L739.97 43.0004L739.992 43.268L741.952 63.161L741.984 63.4622L744.371 87.8427L744.415 88.2442L747.414 118.82L747.468 119.322L751.343 158.84L751.408 159.476L756.608 212.49L756.696 213.361L764.052 288.21L764.172 289.482L775.336 403.112L775.533 405.155L794.864 601.972L834.236 1002.87L834.663 1007.29Z" fill="url(#paint22_linear_371_8159)"/>
<path d="M-3012.29 1007.29H-3015L219.996 0.0668143H220.357L-3012.29 1007.29Z" fill="url(#paint23_linear_371_8159)"/>
<path d="M-2785.95 1007.29H-2788.66L250.317 0.0668143H250.678L-2785.95 1007.29Z" fill="url(#paint24_linear_371_8159)"/>
<path d="M-2559.61 1007.29H-2562.32L280.636 0.0668143H281.009L-2559.61 1007.29Z" fill="url(#paint25_linear_371_8159)"/>
<path d="M-2333.31 1007.29H-2336.01L310.957 0.0668143H311.329L-2333.31 1007.29Z" fill="url(#paint26_linear_371_8159)"/>
<path d="M-2106.97 1007.29H-2109.68L-2098.97 1002.87L-1123.35 601.972L-1114.43 598.288L-644.424 405.155L-639.443 403.112L-362.939 289.483L-359.852 288.21L-177.745 213.361L-175.589 212.49L-46.6023 159.476L-45.0476 158.84L51.1118 119.322L52.3162 118.82L126.759 88.2442L127.7 87.8427L187.027 63.4622L187.793 63.161L236.196 43.268L236.831 43.0003L277.068 26.4568L277.583 26.2556L311.569 12.2907L312.018 12.0896L341.102 0.13454L341.288 0.0672188H341.649L341.463 0.13454L312.412 12.0896L311.963 12.2907L278.009 26.2556L277.495 26.4568L237.291 43.0003L236.667 43.2681L188.297 63.161L187.542 63.4624L128.27 87.8427L127.328 88.2442L52.9504 118.82L51.7463 119.322L-44.3147 158.84L-45.8687 159.476L-174.735 212.49L-176.891 213.361L-358.823 288.21L-361.91 289.483L-638.141 403.112L-643.121 405.155L-1112.68 598.288L-1121.59 601.972L-2096.27 1002.87L-2106.97 1007.29Z" fill="url(#paint27_linear_371_8159)"/>
<path d="M-1880.63 1007.29H-1883.34L-1873.48 1002.87L-975.898 601.972L-967.689 598.288L-535.271 405.155L-530.685 403.112L-276.302 289.483L-273.456 288.21L-105.918 213.361L-103.926 212.49L14.7493 159.476L16.1724 158.84L104.637 119.322L105.743 118.82L174.242 88.2442L175.107 87.8427L229.683 63.4622L230.384 63.161L274.923 43.268L275.503 43.0003L312.533 26.4568L313.003 26.2556L344.276 12.2907L344.681 12.0896L371.433 0.13454L371.608 0.0672188H371.969L371.805 0.13454L345.075 12.0896L344.659 12.2907L313.43 26.2556L312.96 26.4565L275.974 43.0004L275.394 43.268L230.898 63.161L230.198 63.4622L175.676 87.8427L174.801 88.2442L106.388 118.82L105.283 119.322L16.9058 158.84L15.4829 159.476L-103.072 212.49L-105.053 213.361L-272.427 288.21L-275.262 289.483L-529.382 403.112L-533.958 405.155L-965.927 598.288L-974.125 601.972L-1870.78 1002.87L-1880.63 1007.29Z" fill="url(#paint28_linear_371_8159)"/>
<path d="M-1654.29 1007.29H-1657L-1648 1002.87L-828.435 601.972L-820.938 598.288L-426.108 405.155L-421.926 403.112L-189.654 289.483L-187.06 288.21L-34.0803 213.361L-32.2634 212.49L76.0901 159.476L77.3926 158.84L158.173 119.322L159.181 118.82L221.715 88.2442L222.513 87.8427L272.35 63.4622L272.985 63.161L313.66 43.268L314.186 43.0004L347.987 26.4568L348.424 26.2556L376.971 12.2907L377.354 12.0895L401.775 0.13454L401.928 0.0672188H402.3L402.136 0.13454L377.737 12.0896L377.365 12.2907L348.851 26.2556L348.413 26.4568L314.645 43.0004L314.12 43.268L273.5 63.1609L272.854 63.4622L223.083 87.8427L222.284 88.2442L159.815 118.82L158.808 119.322L78.1262 158.84L76.8237 159.476L-31.4097 212.49L-33.2266 213.361L-186.02 288.21L-188.614 289.483L-420.624 403.112L-424.805 405.155L-819.186 598.288L-826.673 601.972L-1645.3 1002.87L-1654.29 1007.29Z" fill="url(#paint29_linear_371_8159)"/>
<path d="M-1427.99 1007.29H-1430.7L-1422.56 1002.87L-681.005 601.972L-674.219 598.288L-316.977 405.155L-313.19 403.112L-103.028 289.483L-100.675 288.21L37.7356 213.361L39.3774 212.49L137.42 159.476L138.602 158.84L211.688 119.322L212.607 118.82L269.187 88.2442L269.909 87.8427L314.996 63.4622L315.576 63.161L352.376 43.268L352.858 43.0004L383.44 26.4568L383.834 26.2556L409.667 12.2907L410.006 12.0896L432.106 0.13454L432.248 0.0672188H432.609L432.478 0.13454L410.4 12.0896L410.061 12.2907L384.261 26.2556L383.867 26.4568L353.317 43.0003L352.835 43.2681L316.09 63.161L315.51 63.4622L270.479 87.8427L269.756 88.2442L213.242 118.82L212.334 119.323L139.336 158.84L138.164 159.476L40.2422 212.49L38.6003 213.361L-99.6462 288.21L-101.989 289.483L-311.887 403.112L-672.467 598.288L-679.243 601.972L-1419.85 1002.87L-1427.99 1007.29Z" fill="url(#paint30_linear_371_8159)"/>
<path d="M-1201.65 1007.29H-1204.36L462.579 0.0668143L462.853 0.0672188H462.94L462.809 0.13454L443.062 12.0896L442.756 12.2907L419.682 26.2556L419.332 26.4568L392 43.0004L391.573 43.268L358.692 63.161L358.177 63.4622L317.885 87.8427L317.24 88.2442L266.68 118.82L265.859 119.322L200.556 158.84L199.505 159.476L111.905 212.49L110.428 213.361L-13.25 288.21L-15.3408 289.483L-525.716 598.288L-531.78 601.972L-1194.37 1002.87L-1201.65 1007.29Z" fill="url(#paint31_linear_371_8159)"/>
<path d="M-975.308 1007.29H-978.022L492.899 0.0668143L493.173 0.0672188H493.26L493.151 0.13454L475.725 12.0895L475.462 12.2907L455.092 26.2556L454.786 26.4568L430.672 43.0004L430.3 43.268L401.293 63.161L400.833 63.4622L365.292 87.8427L364.723 88.2442L320.118 118.82L319.396 119.323L261.777 158.84L260.846 159.476L183.557 212.49L182.265 213.361L73.1567 288.21L71.3069 289.482L-94.3701 403.112L-97.3584 405.155L-378.975 598.288L-384.316 601.972L-968.893 1002.87L-975.308 1007.29Z" fill="url(#paint32_linear_371_8159)"/>
<path d="M1060.96 1007.29H1058.26L1056.97 1002.87L940.532 601.972L883.362 405.155L882.771 403.112L849.768 289.483L849.396 288.21L827.658 213.361L827.406 212.49L812.005 159.476L811.819 158.84L800.348 119.322L800.205 118.82L791.317 88.2442L791.208 87.8427L784.126 63.4622L784.028 63.1609L778.248 43.268L778.182 43.0004L773.377 26.4568L773.312 26.2556L769.261 12.2907L769.207 12.0896L765.737 0.13454L765.715 0.0672188H766.076L766.098 0.13454L769.589 12.0896L769.645 12.2907L773.738 26.2556L773.804 26.4565L778.642 43.0004L778.719 43.268L784.542 63.161L784.63 63.4622L791.766 87.8427L791.887 88.2442L800.84 118.82L800.982 119.322L828.26 212.49L828.523 213.361L850.437 288.21L850.798 289.483L884.073 403.112L884.675 405.155L941.222 598.288L942.294 601.972L1059.68 1002.87L1060.96 1007.29Z" fill="url(#paint33_linear_371_8159)"/>
<path d="M1287.31 1007.29H1284.59L1282.46 1002.87L1087.98 601.972L1086.21 598.288L992.525 405.155L991.529 403.112L936.406 289.483L935.793 288.21L899.496 213.361L899.069 212.49L873.357 159.476L873.04 158.84L853.873 119.322L853.632 118.82L838.801 88.2442L838.604 87.8427L826.782 63.4622L826.629 63.161L816.986 43.268L816.854 43.0004L808.831 26.4568L808.732 26.2556L801.957 12.2907L801.869 12.0895L796.068 0.13454L796.035 0.0672188H796.396L796.429 0.13454L802.263 12.0895L802.351 12.2904L809.16 26.2556L809.258 26.4568L817.314 43.0004L817.446 43.268L827.143 63.1609L827.296 63.4624L839.173 87.8427L854.278 118.82L854.519 119.322L873.773 158.84L874.09 159.476L899.923 212.49L900.35 213.361L936.832 288.21L937.445 289.483L992.832 403.112L993.828 405.155L1087.96 598.288L1089.75 601.972L1285.16 1002.87L1287.31 1007.29Z" fill="url(#paint34_linear_371_8159)"/>
<path d="M1513.65 1007.29H1510.93L1507.95 1002.87L1235.45 601.972L1232.95 598.288L1101.68 405.155L1100.29 403.112L1023.05 289.483L971.334 213.361L970.721 212.49L934.698 159.476L934.26 158.84L907.409 119.322L907.07 118.82L886.273 88.2442L886.011 87.8427L869.438 63.4622L869.231 63.1609L855.712 43.268L855.537 43.0003L844.295 26.4568L844.153 26.2556L834.652 12.2907L834.532 12.0895L826.41 0.13454L826.355 0.0672188H826.717L826.771 0.13454L834.926 12.0896L835.046 12.2907L844.569 26.2556L844.723 26.4565L855.997 43.0004L856.172 43.268L869.745 63.1609L869.953 63.4622L886.58 87.8427L886.843 88.2442L907.705 118.82L908.044 119.322L934.993 158.84L935.431 159.476L971.586 212.49L972.188 213.361L1023.23 288.21L1024.09 289.483L1101.59 403.112L1102.98 405.155L1234.71 598.288L1237.21 601.972L1510.64 1002.87L1513.65 1007.29Z" fill="url(#paint35_linear_371_8159)"/>
<path d="M1739.94 1007.29H1737.27L1733.43 1002.87L1382.9 601.972L1379.7 598.288L1210.83 405.155L1109.7 289.483L1108.6 288.21L1043.16 213.361L1042.38 212.49L996.039 159.476L995.492 158.84L960.935 119.322L960.509 118.82L933.757 88.2442L933.417 87.8427L912.106 63.4622L911.832 63.1609L894.439 43.268L894.209 43.0004L879.75 26.4568L879.563 26.2556L867.359 12.2907L867.195 12.0896L856.752 0.13454L856.686 0.0672188H857.036L857.102 0.13454L867.577 12.0896L867.742 12.2907L879.991 26.2556L880.177 26.4565L894.669 43.0003L894.899 43.2681L912.335 63.161L912.609 63.4622L933.976 87.8427L934.315 88.2442L961.132 118.82L961.57 119.322L1043.23 212.49L1044.02 213.361L1109.61 288.21L1110.72 289.483L1210.33 403.112L1212.12 405.155L1381.43 598.288L1384.64 601.972L1736.08 1002.87L1739.94 1007.29Z" fill="url(#paint36_linear_371_8159)"/>
<path d="M1966.28 1007.29H1963.58L1958.87 1002.87L1530.34 601.972L1526.42 598.288L1319.97 405.155L1317.78 403.112L1196.33 289.483L1194.97 288.21L1114.99 213.361L1114.04 212.49L1057.38 159.476L1056.7 158.84L1014.46 119.322L1013.94 118.82L981.229 88.2442L980.813 87.8427L954.762 63.4622L954.423 63.161L933.155 43.268L932.881 43.0003L915.203 26.4568L914.984 26.2556L900.054 12.2907L899.857 12.0895L887.083 0.13454L886.996 0.0672188H887.367L887.445 0.13454L900.251 12.0895L900.448 12.2904L915.401 26.2556L915.63 26.4568L933.341 43.0003L933.625 43.268L954.937 63.1609L955.266 63.4622L981.382 87.8427L981.798 88.2442L1014.57 118.82L1015.1 119.322L1057.43 158.84L1058.11 159.476L1114.89 212.49L1115.84 213.361L1196.01 288.21L1197.37 289.483L1319.09 403.112L1321.27 405.155L1528.17 598.288L1532.1 601.972L1961.57 1002.87L1966.28 1007.29Z" fill="url(#paint37_linear_371_8159)"/>
<path d="M2192.62 1007.29H2189.92L2184.35 1002.87L1677.79 601.972L1673.16 598.288L1429.12 405.155L1426.54 403.112L1282.97 289.483L1186.81 213.361L1185.7 212.49L1118.72 159.476L1117.92 158.84L1067.99 119.322L1067.36 118.82L1028.71 88.2442L1028.22 87.8427L997.418 63.4622L997.024 63.1609L971.892 43.268L971.564 43.0004L950.668 26.4568L950.394 26.2556L932.749 12.2907L932.52 12.0895L917.425 0.13454L917.327 0.0672188H917.688L917.786 0.13454L932.914 12.0896L933.144 12.2907L950.821 26.2556L951.095 26.4565L972.024 43.0004L972.352 43.268L997.527 63.1609L997.933 63.4622L1028.79 87.8427L1029.28 88.2442L1068.01 118.82L1068.63 119.322L1118.65 158.84L1119.45 159.476L1186.55 212.49L1187.68 213.361L1282.41 288.21L1284.01 289.483L1430.43 405.155L1674.91 598.288L1679.56 601.972L2187.05 1002.87L2192.62 1007.29Z" fill="url(#paint38_linear_371_8159)"/>
<path d="M2418.96 1007.29H2416.26L2409.83 1002.87L1825.26 601.972L1819.9 598.288L1538.28 405.155L1369.62 289.483L1367.77 288.21L1258.65 213.361L1257.36 212.49L1180.07 159.476L1179.14 158.84L1121.52 119.322L1120.8 118.82L1076.2 88.2442L1075.63 87.8427L1040.08 63.4622L1039.63 63.161L1010.62 43.268L1010.24 43.0004L986.122 26.4568L985.815 26.2556L965.456 12.2907L965.182 12.0896L947.756 0.13454L947.647 0.0672188H948.008L948.128 0.13454L965.576 12.0896L965.839 12.2904L986.242 26.2556L986.549 26.4568L1010.71 43.0004L1011.08 43.268L1040.13 63.161L1040.59 63.4622L1076.2 87.8427L1076.77 88.2442L1121.44 118.82L1122.16 119.322L1179.88 158.84L1180.81 159.476L1258.22 212.49L1259.51 213.361L1368.8 288.21L1370.65 289.482L1536.6 403.112L1539.59 405.155L1821.67 598.288L1827.02 601.972L2412.54 1002.87L2418.96 1007.29Z" fill="url(#paint39_linear_371_8159)"/>
<path d="M2645.27 1007.29H2642.55L977.967 0.0672188H978.328L978.459 0.13454L998.228 12.0896L998.534 12.2907L1021.65 26.2556L1022 26.4568L1049.38 43.0003L1049.8 43.2681L1082.72 63.1609L1083.25 63.4622L1123.59 87.8427L1124.24 88.2442L1174.86 118.82L1175.68 119.322L1241.08 158.84L1242.14 159.476L1329.87 212.49L1331.33 213.361L1455.19 288.21L1457.29 289.483L1648.72 405.155L1968.39 598.288L1974.45 601.972L2637.98 1002.87L2645.27 1007.29Z" fill="url(#paint40_linear_371_8159)"/>
<path d="M2871.61 1007.29H2868.89L1008.29 0.0672188H1008.66L1008.79 0.13454L1030.9 12.0895L1031.24 12.2904L1057.07 26.2556L1057.47 26.4565L1088.05 43.0004L1088.53 43.268L1125.32 63.161L1125.9 63.4622L1171 87.8427L1171.72 88.2445L1228.3 118.82L1229.21 119.322L1302.31 158.84L1303.48 159.476L1401.52 212.49L1403.17 213.361L1541.58 288.21L1543.93 289.483L1754.1 403.112L1757.88 405.155L2115.13 598.288L2121.91 601.972L2863.46 1002.87L2871.61 1007.29Z" fill="url(#paint41_linear_371_8159)"/>
<path d="M3097.95 1007.29H3095.23L3086.25 1002.87L2267.6 601.972L2260.12 598.288L1865.73 405.155L1861.55 403.112L1629.53 289.483L1626.95 288.21L1474.15 213.361L1472.33 212.49L1364.09 159.476L1362.79 158.84L1282.1 119.322L1281.09 118.82L1218.62 88.2442L1217.84 87.8427L1168.05 63.4622L1167.42 63.1609L1126.8 43.268L1126.26 43.0004L1092.49 26.4568L1092.07 26.2556L1063.54 12.2907L1063.17 12.0895L1038.77 0.13454L1038.62 0.0672188H1038.98L1039.13 0.13454L1063.56 12.0896L1063.94 12.2907L1092.48 26.2556L1092.92 26.4568L1126.73 43.0004L1127.26 43.268L1167.92 63.161L1168.57 63.4622L1218.4 87.8427L1219.19 88.2442L1281.74 118.82L1282.74 119.322L1363.53 158.84L1364.83 159.476L1473.18 212.49L1475 213.361L1627.98 288.21L1630.57 289.483L1867.04 405.155L2261.88 598.288L2269.36 601.972L3088.95 1002.87L3097.95 1007.29Z" fill="url(#paint42_linear_371_8159)"/>
<path d="M3324.29 1007.29H3321.57L3311.73 1002.87L2415.07 601.972L2406.87 598.288L1974.89 405.155L1716.18 289.483L1713.35 288.21L1545.97 213.361L1543.99 212.49L1425.44 159.476L1424.01 158.84L1335.64 119.322L1334.53 118.82L1266.11 88.2442L1265.24 87.8427L1210.72 63.4622L1210.01 63.161L1165.53 43.268L1164.95 43.0004L1127.96 26.4568L1127.48 26.2556L1096.25 12.2907L1095.83 12.0896L1069.11 0.13454L1068.94 0.0672188H1069.3L1069.47 0.13454L1096.23 12.0896L1096.64 12.2907L1127.9 26.2556L1128.39 26.4568L1165.4 43.0004L1165.98 43.268L1210.52 63.161L1211.22 63.4622L1265.81 87.8427L1266.68 88.2442L1335.16 118.82L1336.27 119.322L1424.75 158.84L1426.17 159.476L1544.84 212.49L1546.84 213.361L1714.37 288.21L1971.6 403.112L2408.62 598.288L2416.83 601.972L3314.42 1002.87L3324.29 1007.29Z" fill="url(#paint43_linear_371_8159)"/>
<path d="M3550.58 1007.29H3547.88L3537.17 1002.87L2562.5 601.972L2553.59 598.288L2084.03 405.155L2079.05 403.112L1802.81 289.483L1799.73 288.21L1617.8 213.361L1615.63 212.49L1486.77 159.476L1485.22 158.84L1389.15 119.322L1387.96 118.82L1313.58 88.2442L1312.64 87.8427L1253.37 63.4622L1252.61 63.161L1204.24 43.268L1203.62 43.0004L1163.41 26.4568L1162.9 26.2556L1128.94 12.2907L1128.49 12.0896L1099.44 0.13454L1099.26 0.0672188H1099.62L1099.81 0.13454L1128.89 12.0895L1129.34 12.2904L1163.31 26.2556L1163.84 26.4565L1204.08 43.0004L1204.71 43.2681L1253.11 63.161L1253.88 63.4622L1313.21 87.8427L1314.15 88.2442L1388.59 118.82L1389.8 119.322L1485.96 158.84L1487.51 159.476L1616.5 212.49L1618.65 213.361L1800.76 288.21L1803.85 289.483L2080.35 403.112L2085.33 405.155L2555.34 598.288L2564.26 601.972L3539.88 1002.87L3550.58 1007.29Z" fill="url(#paint44_linear_371_8159)"/>
<path d="M3776.92 1007.29H3774.22L3762.66 1002.87L2709.95 601.972L2700.33 598.288L2193.18 405.155L2187.81 403.112L1889.45 289.483L1886.13 288.21L1689.63 213.361L1687.29 212.49L1548.12 159.476L1546.44 158.84L1442.69 119.322L1441.39 118.82L1361.06 88.2442L1360.04 87.8427L1296.03 63.4622L1295.2 63.161L1242.97 43.268L1242.29 43.0004L1198.87 26.4568L1198.31 26.2556L1161.64 12.2907L1161.16 12.0895L1129.79 0.13454L1129.58 0.0672188H1129.94L1130.15 0.13454L1161.55 12.0896L1162.03 12.2907L1198.73 26.2556L1199.29 26.4568L1242.76 43.0003L1243.44 43.2681L1295.72 63.161L1296.54 63.4622L1360.61 87.8427L1361.63 88.2442L1442.03 118.82L1443.32 119.323L1547.18 158.84L1548.85 159.476L1688.16 212.49L1690.49 213.361L2189.11 403.112L2702.08 598.288L2711.72 601.972L3765.35 1002.87L3776.92 1007.29Z" fill="url(#paint45_linear_371_8159)"/>
<path d="M4003.26 1007.29H4000.56L1159.91 0.0668143H1160.27L4003.26 1007.29Z" fill="url(#paint46_linear_371_8159)"/>
<path d="M4229.57 1007.29H4226.85L1190.23 0.0668143H1190.59L4229.57 1007.29Z" fill="url(#paint47_linear_371_8159)"/>
<path d="M4455.91 1007.29H4453.19L1220.55 0.0668143H1220.91L4455.91 1007.29Z" fill="url(#paint48_linear_371_8159)"/>
<defs>
<linearGradient id="paint0_linear_371_8159" x1="720" y1="-164" x2="720" y2="1122.5" gradientUnits="userSpaceOnUse">
<stop offset="0.137134" stop-color="#E4E3E7"/>
<stop offset="0.204307" stop-color="#EEEEEE"/>
<stop offset="0.847851" stop-color="#E8EFEF"/>
<stop offset="0.908464" stop-color="white"/>
</linearGradient>
<linearGradient id="paint1_linear_371_8159" x1="720" y1="-164" x2="720" y2="1122.5" gradientUnits="userSpaceOnUse">
<stop offset="0.137134" stop-color="#E4E3E7"/>
<stop offset="0.204307" stop-color="#EEEEEE"/>
<stop offset="0.847851" stop-color="#E8EFEF"/>
<stop offset="0.908464" stop-color="white"/>
</linearGradient>
<linearGradient id="paint2_linear_371_8159" x1="720" y1="-164" x2="720" y2="1122.5" gradientUnits="userSpaceOnUse">
<stop offset="0.137134" stop-color="#E4E3E7"/>
<stop offset="0.204307" stop-color="#EEEEEE"/>
<stop offset="0.847851" stop-color="#E8EFEF"/>
<stop offset="0.908464" stop-color="white"/>
</linearGradient>
<linearGradient id="paint3_linear_371_8159" x1="720" y1="-164" x2="720" y2="1122.5" gradientUnits="userSpaceOnUse">
<stop offset="0.137134" stop-color="#E4E3E7"/>
<stop offset="0.204307" stop-color="#EEEEEE"/>
<stop offset="0.847851" stop-color="#E8EFEF"/>
<stop offset="0.908464" stop-color="white"/>
</linearGradient>
<linearGradient id="paint4_linear_371_8159" x1="720" y1="-164" x2="720" y2="1122.5" gradientUnits="userSpaceOnUse">
<stop offset="0.137134" stop-color="#E4E3E7"/>
<stop offset="0.204307" stop-color="#EEEEEE"/>
<stop offset="0.847851" stop-color="#E8EFEF"/>
<stop offset="0.908464" stop-color="white"/>
</linearGradient>
<linearGradient id="paint5_linear_371_8159" x1="720" y1="-164" x2="720" y2="1122.5" gradientUnits="userSpaceOnUse">
<stop offset="0.137134" stop-color="#E4E3E7"/>
<stop offset="0.204307" stop-color="#EEEEEE"/>
<stop offset="0.847851" stop-color="#E8EFEF"/>
<stop offset="0.908464" stop-color="white"/>
</linearGradient>
<linearGradient id="paint6_linear_371_8159" x1="720" y1="-164" x2="720" y2="1122.5" gradientUnits="userSpaceOnUse">
<stop offset="0.137134" stop-color="#E4E3E7"/>
<stop offset="0.204307" stop-color="#EEEEEE"/>
<stop offset="0.847851" stop-color="#E8EFEF"/>
<stop offset="0.908464" stop-color="white"/>
</linearGradient>
<linearGradient id="paint7_linear_371_8159" x1="720" y1="-164" x2="720" y2="1122.5" gradientUnits="userSpaceOnUse">
<stop offset="0.137134" stop-color="#E4E3E7"/>
<stop offset="0.204307" stop-color="#EEEEEE"/>
<stop offset="0.847851" stop-color="#E8EFEF"/>
<stop offset="0.908464" stop-color="white"/>
</linearGradient>
<linearGradient id="paint8_linear_371_8159" x1="720" y1="-164" x2="720" y2="1122.5" gradientUnits="userSpaceOnUse">
<stop offset="0.137134" stop-color="#E4E3E7"/>
<stop offset="0.204307" stop-color="#EEEEEE"/>
<stop offset="0.847851" stop-color="#E8EFEF"/>
<stop offset="0.908464" stop-color="white"/>
</linearGradient>
<linearGradient id="paint9_linear_371_8159" x1="720" y1="-164" x2="720" y2="1122.5" gradientUnits="userSpaceOnUse">
<stop offset="0.137134" stop-color="#E4E3E7"/>
<stop offset="0.204307" stop-color="#EEEEEE"/>
<stop offset="0.847851" stop-color="#E8EFEF"/>
<stop offset="0.908464" stop-color="white"/>
</linearGradient>
<linearGradient id="paint10_linear_371_8159" x1="720" y1="-164" x2="720" y2="1122.5" gradientUnits="userSpaceOnUse">
<stop offset="0.137134" stop-color="#E4E3E7"/>
<stop offset="0.204307" stop-color="#EEEEEE"/>
<stop offset="0.847851" stop-color="#E8EFEF"/>
<stop offset="0.908464" stop-color="white"/>
</linearGradient>
<linearGradient id="paint11_linear_371_8159" x1="720" y1="-164" x2="720" y2="1122.5" gradientUnits="userSpaceOnUse">
<stop offset="0.137134" stop-color="#E4E3E7"/>
<stop offset="0.204307" stop-color="#EEEEEE"/>
<stop offset="0.847851" stop-color="#E8EFEF"/>
<stop offset="0.908464" stop-color="white"/>
</linearGradient>
<linearGradient id="paint12_linear_371_8159" x1="720" y1="-164" x2="720" y2="1122.5" gradientUnits="userSpaceOnUse">
<stop offset="0.137134" stop-color="#E4E3E7"/>
<stop offset="0.204307" stop-color="#EEEEEE"/>
<stop offset="0.847851" stop-color="#E8EFEF"/>
<stop offset="0.908464" stop-color="white"/>
</linearGradient>
<linearGradient id="paint13_linear_371_8159" x1="720" y1="-164" x2="720" y2="1122.5" gradientUnits="userSpaceOnUse">
<stop offset="0.137134" stop-color="#E4E3E7"/>
<stop offset="0.204307" stop-color="#EEEEEE"/>
<stop offset="0.847851" stop-color="#E8EFEF"/>
<stop offset="0.908464" stop-color="white"/>
</linearGradient>
<linearGradient id="paint14_linear_371_8159" x1="720" y1="-164" x2="720" y2="1122.5" gradientUnits="userSpaceOnUse">
<stop offset="0.137134" stop-color="#E4E3E7"/>
<stop offset="0.204307" stop-color="#EEEEEE"/>
<stop offset="0.847851" stop-color="#E8EFEF"/>
<stop offset="0.908464" stop-color="white"/>
</linearGradient>
<linearGradient id="paint15_linear_371_8159" x1="720" y1="-164" x2="720" y2="1122.5" gradientUnits="userSpaceOnUse">
<stop offset="0.137134" stop-color="#E4E3E7"/>
<stop offset="0.204307" stop-color="#EEEEEE"/>
<stop offset="0.847851" stop-color="#E8EFEF"/>
<stop offset="0.908464" stop-color="white"/>
</linearGradient>
<linearGradient id="paint16_linear_371_8159" x1="720" y1="-164" x2="720" y2="1122.5" gradientUnits="userSpaceOnUse">
<stop offset="0.137134" stop-color="#E4E3E7"/>
<stop offset="0.204307" stop-color="#EEEEEE"/>
<stop offset="0.847851" stop-color="#E8EFEF"/>
<stop offset="0.908464" stop-color="white"/>
</linearGradient>
<linearGradient id="paint17_linear_371_8159" x1="720" y1="-164" x2="720" y2="1122.5" gradientUnits="userSpaceOnUse">
<stop offset="0.137134" stop-color="#E4E3E7"/>
<stop offset="0.204307" stop-color="#EEEEEE"/>
<stop offset="0.847851" stop-color="#E8EFEF"/>
<stop offset="0.908464" stop-color="white"/>
</linearGradient>
<linearGradient id="paint18_linear_371_8159" x1="720" y1="-164" x2="720" y2="1122.5" gradientUnits="userSpaceOnUse">
<stop offset="0.137134" stop-color="#E4E3E7"/>
<stop offset="0.204307" stop-color="#EEEEEE"/>
<stop offset="0.847851" stop-color="#E8EFEF"/>
<stop offset="0.908464" stop-color="white"/>
</linearGradient>
<linearGradient id="paint19_linear_371_8159" x1="720" y1="-164" x2="720" y2="1122.5" gradientUnits="userSpaceOnUse">
<stop offset="0.137134" stop-color="#E4E3E7"/>
<stop offset="0.204307" stop-color="#EEEEEE"/>
<stop offset="0.847851" stop-color="#E8EFEF"/>
<stop offset="0.908464" stop-color="white"/>
</linearGradient>
<linearGradient id="paint20_linear_371_8159" x1="720" y1="-164" x2="720" y2="1122.5" gradientUnits="userSpaceOnUse">
<stop offset="0.137134" stop-color="#E4E3E7"/>
<stop offset="0.204307" stop-color="#EEEEEE"/>
<stop offset="0.847851" stop-color="#E8EFEF"/>
<stop offset="0.908464" stop-color="white"/>
</linearGradient>
<linearGradient id="paint21_linear_371_8159" x1="720" y1="-164" x2="720" y2="1122.5" gradientUnits="userSpaceOnUse">
<stop offset="0.137134" stop-color="#E4E3E7"/>
<stop offset="0.204307" stop-color="#EEEEEE"/>
<stop offset="0.847851" stop-color="#E8EFEF"/>
<stop offset="0.908464" stop-color="white"/>
</linearGradient>
<linearGradient id="paint22_linear_371_8159" x1="720" y1="-164" x2="720" y2="1122.5" gradientUnits="userSpaceOnUse">
<stop offset="0.137134" stop-color="#E4E3E7"/>
<stop offset="0.204307" stop-color="#EEEEEE"/>
<stop offset="0.847851" stop-color="#E8EFEF"/>
<stop offset="0.908464" stop-color="white"/>
</linearGradient>
<linearGradient id="paint23_linear_371_8159" x1="720" y1="-164" x2="720" y2="1122.5" gradientUnits="userSpaceOnUse">
<stop offset="0.137134" stop-color="#E4E3E7"/>
<stop offset="0.204307" stop-color="#EEEEEE"/>
<stop offset="0.847851" stop-color="#E8EFEF"/>
<stop offset="0.908464" stop-color="white"/>
</linearGradient>
<linearGradient id="paint24_linear_371_8159" x1="720" y1="-164" x2="720" y2="1122.5" gradientUnits="userSpaceOnUse">
<stop offset="0.137134" stop-color="#E4E3E7"/>
<stop offset="0.204307" stop-color="#EEEEEE"/>
<stop offset="0.847851" stop-color="#E8EFEF"/>
<stop offset="0.908464" stop-color="white"/>
</linearGradient>
<linearGradient id="paint25_linear_371_8159" x1="720" y1="-164" x2="720" y2="1122.5" gradientUnits="userSpaceOnUse">
<stop offset="0.137134" stop-color="#E4E3E7"/>
<stop offset="0.204307" stop-color="#EEEEEE"/>
<stop offset="0.847851" stop-color="#E8EFEF"/>
<stop offset="0.908464" stop-color="white"/>
</linearGradient>
<linearGradient id="paint26_linear_371_8159" x1="720" y1="-164" x2="720" y2="1122.5" gradientUnits="userSpaceOnUse">
<stop offset="0.137134" stop-color="#E4E3E7"/>
<stop offset="0.204307" stop-color="#EEEEEE"/>
<stop offset="0.847851" stop-color="#E8EFEF"/>
<stop offset="0.908464" stop-color="white"/>
</linearGradient>
<linearGradient id="paint27_linear_371_8159" x1="720" y1="-164" x2="720" y2="1122.5" gradientUnits="userSpaceOnUse">
<stop offset="0.137134" stop-color="#E4E3E7"/>
<stop offset="0.204307" stop-color="#EEEEEE"/>
<stop offset="0.847851" stop-color="#E8EFEF"/>
<stop offset="0.908464" stop-color="white"/>
</linearGradient>
<linearGradient id="paint28_linear_371_8159" x1="720" y1="-164" x2="720" y2="1122.5" gradientUnits="userSpaceOnUse">
<stop offset="0.137134" stop-color="#E4E3E7"/>
<stop offset="0.204307" stop-color="#EEEEEE"/>
<stop offset="0.847851" stop-color="#E8EFEF"/>
<stop offset="0.908464" stop-color="white"/>
</linearGradient>
<linearGradient id="paint29_linear_371_8159" x1="720" y1="-164" x2="720" y2="1122.5" gradientUnits="userSpaceOnUse">
<stop offset="0.137134" stop-color="#E4E3E7"/>
<stop offset="0.204307" stop-color="#EEEEEE"/>
<stop offset="0.847851" stop-color="#E8EFEF"/>
<stop offset="0.908464" stop-color="white"/>
</linearGradient>
<linearGradient id="paint30_linear_371_8159" x1="720" y1="-164" x2="720" y2="1122.5" gradientUnits="userSpaceOnUse">
<stop offset="0.137134" stop-color="#E4E3E7"/>
<stop offset="0.204307" stop-color="#EEEEEE"/>
<stop offset="0.847851" stop-color="#E8EFEF"/>
<stop offset="0.908464" stop-color="white"/>
</linearGradient>
<linearGradient id="paint31_linear_371_8159" x1="720" y1="-164" x2="720" y2="1122.5" gradientUnits="userSpaceOnUse">
<stop offset="0.137134" stop-color="#E4E3E7"/>
<stop offset="0.204307" stop-color="#EEEEEE"/>
<stop offset="0.847851" stop-color="#E8EFEF"/>
<stop offset="0.908464" stop-color="white"/>
</linearGradient>
<linearGradient id="paint32_linear_371_8159" x1="720" y1="-164" x2="720" y2="1122.5" gradientUnits="userSpaceOnUse">
<stop offset="0.137134" stop-color="#E4E3E7"/>
<stop offset="0.204307" stop-color="#EEEEEE"/>
<stop offset="0.847851" stop-color="#E8EFEF"/>
<stop offset="0.908464" stop-color="white"/>
</linearGradient>
<linearGradient id="paint33_linear_371_8159" x1="720" y1="-164" x2="720" y2="1122.5" gradientUnits="userSpaceOnUse">
<stop offset="0.137134" stop-color="#E4E3E7"/>
<stop offset="0.204307" stop-color="#EEEEEE"/>
<stop offset="0.847851" stop-color="#E8EFEF"/>
<stop offset="0.908464" stop-color="white"/>
</linearGradient>
<linearGradient id="paint34_linear_371_8159" x1="720" y1="-164" x2="720" y2="1122.5" gradientUnits="userSpaceOnUse">
<stop offset="0.137134" stop-color="#E4E3E7"/>
<stop offset="0.204307" stop-color="#EEEEEE"/>
<stop offset="0.847851" stop-color="#E8EFEF"/>
<stop offset="0.908464" stop-color="white"/>
</linearGradient>
<linearGradient id="paint35_linear_371_8159" x1="720" y1="-164" x2="720" y2="1122.5" gradientUnits="userSpaceOnUse">
<stop offset="0.137134" stop-color="#E4E3E7"/>
<stop offset="0.204307" stop-color="#EEEEEE"/>
<stop offset="0.847851" stop-color="#E8EFEF"/>
<stop offset="0.908464" stop-color="white"/>
</linearGradient>
<linearGradient id="paint36_linear_371_8159" x1="720" y1="-164" x2="720" y2="1122.5" gradientUnits="userSpaceOnUse">
<stop offset="0.137134" stop-color="#E4E3E7"/>
<stop offset="0.204307" stop-color="#EEEEEE"/>
<stop offset="0.847851" stop-color="#E8EFEF"/>
<stop offset="0.908464" stop-color="white"/>
</linearGradient>
<linearGradient id="paint37_linear_371_8159" x1="720" y1="-164" x2="720" y2="1122.5" gradientUnits="userSpaceOnUse">
<stop offset="0.137134" stop-color="#E4E3E7"/>
<stop offset="0.204307" stop-color="#EEEEEE"/>
<stop offset="0.847851" stop-color="#E8EFEF"/>
<stop offset="0.908464" stop-color="white"/>
</linearGradient>
<linearGradient id="paint38_linear_371_8159" x1="720" y1="-164" x2="720" y2="1122.5" gradientUnits="userSpaceOnUse">
<stop offset="0.137134" stop-color="#E4E3E7"/>
<stop offset="0.204307" stop-color="#EEEEEE"/>
<stop offset="0.847851" stop-color="#E8EFEF"/>
<stop offset="0.908464" stop-color="white"/>
</linearGradient>
<linearGradient id="paint39_linear_371_8159" x1="720" y1="-164" x2="720" y2="1122.5" gradientUnits="userSpaceOnUse">
<stop offset="0.137134" stop-color="#E4E3E7"/>
<stop offset="0.204307" stop-color="#EEEEEE"/>
<stop offset="0.847851" stop-color="#E8EFEF"/>
<stop offset="0.908464" stop-color="white"/>
</linearGradient>
<linearGradient id="paint40_linear_371_8159" x1="720" y1="-164" x2="720" y2="1122.5" gradientUnits="userSpaceOnUse">
<stop offset="0.137134" stop-color="#E4E3E7"/>
<stop offset="0.204307" stop-color="#EEEEEE"/>
<stop offset="0.847851" stop-color="#E8EFEF"/>
<stop offset="0.908464" stop-color="white"/>
</linearGradient>
<linearGradient id="paint41_linear_371_8159" x1="720" y1="-164" x2="720" y2="1122.5" gradientUnits="userSpaceOnUse">
<stop offset="0.137134" stop-color="#E4E3E7"/>
<stop offset="0.204307" stop-color="#EEEEEE"/>
<stop offset="0.847851" stop-color="#E8EFEF"/>
<stop offset="0.908464" stop-color="white"/>
</linearGradient>
<linearGradient id="paint42_linear_371_8159" x1="720" y1="-164" x2="720" y2="1122.5" gradientUnits="userSpaceOnUse">
<stop offset="0.137134" stop-color="#E4E3E7"/>
<stop offset="0.204307" stop-color="#EEEEEE"/>
<stop offset="0.847851" stop-color="#E8EFEF"/>
<stop offset="0.908464" stop-color="white"/>
</linearGradient>
<linearGradient id="paint43_linear_371_8159" x1="720" y1="-164" x2="720" y2="1122.5" gradientUnits="userSpaceOnUse">
<stop offset="0.137134" stop-color="#E4E3E7"/>
<stop offset="0.204307" stop-color="#EEEEEE"/>
<stop offset="0.847851" stop-color="#E8EFEF"/>
<stop offset="0.908464" stop-color="white"/>
</linearGradient>
<linearGradient id="paint44_linear_371_8159" x1="720" y1="-164" x2="720" y2="1122.5" gradientUnits="userSpaceOnUse">
<stop offset="0.137134" stop-color="#E4E3E7"/>
<stop offset="0.204307" stop-color="#EEEEEE"/>
<stop offset="0.847851" stop-color="#E8EFEF"/>
<stop offset="0.908464" stop-color="white"/>
</linearGradient>
<linearGradient id="paint45_linear_371_8159" x1="720" y1="-164" x2="720" y2="1122.5" gradientUnits="userSpaceOnUse">
<stop offset="0.137134" stop-color="#E4E3E7"/>
<stop offset="0.204307" stop-color="#EEEEEE"/>
<stop offset="0.847851" stop-color="#E8EFEF"/>
<stop offset="0.908464" stop-color="white"/>
</linearGradient>
<linearGradient id="paint46_linear_371_8159" x1="720" y1="-164" x2="720" y2="1122.5" gradientUnits="userSpaceOnUse">
<stop offset="0.137134" stop-color="#E4E3E7"/>
<stop offset="0.204307" stop-color="#EEEEEE"/>
<stop offset="0.847851" stop-color="#E8EFEF"/>
<stop offset="0.908464" stop-color="white"/>
</linearGradient>
<linearGradient id="paint47_linear_371_8159" x1="720" y1="-164" x2="720" y2="1122.5" gradientUnits="userSpaceOnUse">
<stop offset="0.137134" stop-color="#E4E3E7"/>
<stop offset="0.204307" stop-color="#EEEEEE"/>
<stop offset="0.847851" stop-color="#E8EFEF"/>
<stop offset="0.908464" stop-color="white"/>
</linearGradient>
<linearGradient id="paint48_linear_371_8159" x1="720" y1="-164" x2="720" y2="1122.5" gradientUnits="userSpaceOnUse">
<stop offset="0.137134" stop-color="#E4E3E7"/>
<stop offset="0.204307" stop-color="#EEEEEE"/>
<stop offset="0.847851" stop-color="#E8EFEF"/>
<stop offset="0.908464" stop-color="white"/>
</linearGradient>
</defs>
</svg>
